<svg width="17" height="17" viewBox="0 0 17 17" fill="#FFF" xmlns="http://www.w3.org/2000/svg">
<path d="M16.3784 5.1305L15.627 5.8822L11.1186 1.37433L11.8699 0.622559C12.6999 -0.20752 14.0458 -0.20752 14.8758 0.622559L16.3784 2.12551C17.2072 2.95513 17.2072 4.30049 16.3784 5.1305ZM5.85913 14.1457C5.65165 14.3532 5.65165 14.6892 5.85913 14.8967C6.06672 15.1053 6.40292 15.1053 6.6104 14.8967L14.8758 6.63345L14.1236 5.88167L5.85913 14.1457ZM2.10214 10.3895C1.89456 10.5972 1.89456 10.9331 2.10214 11.1407C2.30963 11.3482 2.64583 11.3482 2.85342 11.1407L11.1186 2.87679L10.3676 2.12551L2.10214 10.3895ZM11.869 3.62751L3.60451 11.8919C3.18951 12.3061 3.19057 12.9795 3.60451 13.3945C4.01969 13.8095 4.69195 13.8114 5.10804 13.3933L13.3725 5.1305L11.869 3.62751ZM5.1059 15.6461C4.85178 15.3916 4.7293 15.0692 4.68372 14.7369C4.5757 14.7536 4.46692 14.7691 4.35578 14.7691C3.78813 14.7691 3.255 14.5473 2.85342 14.1457C2.45184 13.7431 2.23083 13.2107 2.23083 12.6431C2.23083 12.5396 2.24635 12.4387 2.26093 12.3381C1.91747 12.2914 1.60001 12.1409 1.35098 11.8919C1.32708 11.8682 1.31885 11.836 1.29709 11.81L0 17L5.17646 15.7042C5.15365 15.6834 5.12783 15.6678 5.1059 15.6461Z"/>
</svg>
