<svg width="15" height="15" viewBox="0 0 15 15" fill="#E43D4E" xmlns="http://www.w3.org/2000/svg">
<path d="M14.5313 5.625H9.375V0.46876C9.375 0.209869 9.16513 0 8.90627 0H6.09376C5.83487 0 5.625 0.209869 5.625 0.46876V5.625H0.46876C0.209869 5.625 0 5.83487 0 6.09376V8.90627C0 9.16513 0.209869 9.375 0.46876 9.375H5.625V14.5313C5.625 14.7901 5.83487 15 6.09376 15H8.90627C9.16513 15 9.37502 14.7901 9.37502 14.5313V9.375H14.5313C14.7901 9.375 15 9.16513 15 8.90627V6.09376C15 5.83487 14.7901 5.625 14.5313 5.625Z"/>
</svg>
